<mxfile host="app.diagrams.net" agent="Mozilla/5.0 (Windows NT 10.0; Win64; x64; rv:142.0) Gecko/20100101 Firefox/142.0" version="28.2.0">
  <diagram name="Seite-1" id="2gFYQ4MArk5PSCBcjxSI">
    <mxGraphModel dx="605" dy="766" grid="1" gridSize="10" guides="1" tooltips="1" connect="1" arrows="1" fold="1" page="1" pageScale="1" pageWidth="827" pageHeight="1169" math="0" shadow="0">
      <root>
        <mxCell id="0" />
        <mxCell id="1" parent="0" />
        <mxCell id="JOxrYH9VMVZD62wawOk7-1" value="&lt;p style=&quot;language:de;line-height:90%;margin-top:7.5pt;margin-bottom:0pt;&amp;lt;br/&amp;gt;margin-left:0in;text-indent:0in;text-align:center;direction:ltr;unicode-bidi:&amp;lt;br/&amp;gt;embed;mso-line-break-override:none;word-break:normal;punctuation-wrap:hanging&quot;&gt;&lt;span style=&quot;font-size:20.0pt;font-family:Calibri;mso-ascii-font-family:Calibri;&amp;lt;br/&amp;gt;mso-fareast-font-family:+mn-ea;mso-bidi-font-family:+mn-cs;mso-ascii-theme-font:&amp;lt;br/&amp;gt;minor-latin;mso-fareast-theme-font:minor-fareast;mso-bidi-theme-font:minor-bidi;&amp;lt;br/&amp;gt;color:black;mso-color-index:1;mso-font-kerning:12.0pt;language:de;font-weight:&amp;lt;br/&amp;gt;normal;mso-style-textfill-type:solid;mso-style-textfill-fill-themecolor:text1;&amp;lt;br/&amp;gt;mso-style-textfill-fill-color:black;mso-style-textfill-fill-alpha:100.0%&quot;&gt;(¬A ∧ B ∧ C) ∨ (A ∧ ¬B ∧ C) ∨ (A ∧ B ∧ ¬C) ∨ (A ∧ B ∧ C&lt;/span&gt;&lt;span style=&quot;font-family: Calibri; color: black; font-weight: normal;&quot;&gt;)&lt;/span&gt;&lt;/p&gt;" style="text;whiteSpace=wrap;html=1;" parent="1" vertex="1">
          <mxGeometry x="414" y="10" width="860" height="80" as="geometry" />
        </mxCell>
        <mxCell id="JOxrYH9VMVZD62wawOk7-15" style="edgeStyle=orthogonalEdgeStyle;rounded=0;orthogonalLoop=1;jettySize=auto;html=1;entryX=0;entryY=0.25;entryDx=0;entryDy=0;exitX=1;exitY=0.5;exitDx=0;exitDy=0;" parent="1" source="JOxrYH9VMVZD62wawOk7-30" target="JOxrYH9VMVZD62wawOk7-10" edge="1">
          <mxGeometry relative="1" as="geometry">
            <mxPoint x="366" y="160" as="sourcePoint" />
          </mxGeometry>
        </mxCell>
        <mxCell id="JOxrYH9VMVZD62wawOk7-55" style="edgeStyle=orthogonalEdgeStyle;rounded=0;orthogonalLoop=1;jettySize=auto;html=1;entryX=-0.008;entryY=0.121;entryDx=0;entryDy=0;entryPerimeter=0;" parent="1" source="JOxrYH9VMVZD62wawOk7-17" target="JOxrYH9VMVZD62wawOk7-54" edge="1">
          <mxGeometry relative="1" as="geometry" />
        </mxCell>
        <mxCell id="JOxrYH9VMVZD62wawOk7-17" value="&amp;amp;" style="rounded=0;whiteSpace=wrap;html=1;" parent="1" vertex="1">
          <mxGeometry x="460" y="110" width="30" height="40" as="geometry" />
        </mxCell>
        <mxCell id="JOxrYH9VMVZD62wawOk7-36" style="edgeStyle=orthogonalEdgeStyle;rounded=0;orthogonalLoop=1;jettySize=auto;html=1;entryX=0;entryY=0.5;entryDx=0;entryDy=0;" parent="1" source="JOxrYH9VMVZD62wawOk7-25" target="JOxrYH9VMVZD62wawOk7-29" edge="1">
          <mxGeometry relative="1" as="geometry" />
        </mxCell>
        <mxCell id="JOxrYH9VMVZD62wawOk7-37" style="edgeStyle=orthogonalEdgeStyle;rounded=0;orthogonalLoop=1;jettySize=auto;html=1;entryX=0;entryY=0.25;entryDx=0;entryDy=0;" parent="1" source="JOxrYH9VMVZD62wawOk7-25" target="JOxrYH9VMVZD62wawOk7-17" edge="1">
          <mxGeometry relative="1" as="geometry">
            <Array as="points">
              <mxPoint x="300" y="120" />
              <mxPoint x="300" y="100" />
              <mxPoint x="440" y="100" />
              <mxPoint x="440" y="120" />
            </Array>
          </mxGeometry>
        </mxCell>
        <mxCell id="JOxrYH9VMVZD62wawOk7-48" style="edgeStyle=orthogonalEdgeStyle;rounded=0;orthogonalLoop=1;jettySize=auto;html=1;entryX=0;entryY=0.25;entryDx=0;entryDy=0;" parent="1" source="JOxrYH9VMVZD62wawOk7-25" target="JOxrYH9VMVZD62wawOk7-45" edge="1">
          <mxGeometry relative="1" as="geometry">
            <Array as="points">
              <mxPoint x="270" y="90" />
              <mxPoint x="500" y="90" />
              <mxPoint x="500" y="210" />
            </Array>
          </mxGeometry>
        </mxCell>
        <mxCell id="JOxrYH9VMVZD62wawOk7-51" style="edgeStyle=orthogonalEdgeStyle;rounded=0;orthogonalLoop=1;jettySize=auto;html=1;entryX=0;entryY=0.25;entryDx=0;entryDy=0;" parent="1" source="JOxrYH9VMVZD62wawOk7-25" target="JOxrYH9VMVZD62wawOk7-50" edge="1">
          <mxGeometry relative="1" as="geometry">
            <Array as="points">
              <mxPoint x="300" y="140" />
              <mxPoint x="300" y="280" />
            </Array>
          </mxGeometry>
        </mxCell>
        <mxCell id="JOxrYH9VMVZD62wawOk7-25" value="A" style="ellipse;whiteSpace=wrap;html=1;aspect=fixed;fontSize=26;" parent="1" vertex="1">
          <mxGeometry x="250" y="110" width="40" height="40" as="geometry" />
        </mxCell>
        <mxCell id="JOxrYH9VMVZD62wawOk7-26" value="" style="edgeStyle=orthogonalEdgeStyle;rounded=0;orthogonalLoop=1;jettySize=auto;html=1;entryX=0;entryY=0.5;entryDx=0;entryDy=0;exitX=1;exitY=0.5;exitDx=0;exitDy=0;" parent="1" source="JOxrYH9VMVZD62wawOk7-27" target="JOxrYH9VMVZD62wawOk7-10" edge="1">
          <mxGeometry relative="1" as="geometry">
            <mxPoint x="320" y="260" as="sourcePoint" />
            <mxPoint x="480" y="170" as="targetPoint" />
            <Array as="points">
              <mxPoint x="310" y="220" />
              <mxPoint x="310" y="180" />
            </Array>
          </mxGeometry>
        </mxCell>
        <mxCell id="JOxrYH9VMVZD62wawOk7-57" style="edgeStyle=orthogonalEdgeStyle;rounded=0;orthogonalLoop=1;jettySize=auto;html=1;entryX=-0.019;entryY=0.369;entryDx=0;entryDy=0;entryPerimeter=0;" parent="1" source="JOxrYH9VMVZD62wawOk7-10" target="JOxrYH9VMVZD62wawOk7-54" edge="1">
          <mxGeometry relative="1" as="geometry" />
        </mxCell>
        <mxCell id="JOxrYH9VMVZD62wawOk7-10" value="&amp;amp;" style="rounded=0;whiteSpace=wrap;html=1;" parent="1" vertex="1">
          <mxGeometry x="399" y="160" width="30" height="40" as="geometry" />
        </mxCell>
        <mxCell id="JOxrYH9VMVZD62wawOk7-35" style="edgeStyle=orthogonalEdgeStyle;rounded=0;orthogonalLoop=1;jettySize=auto;html=1;entryX=0;entryY=0.5;entryDx=0;entryDy=0;" parent="1" source="JOxrYH9VMVZD62wawOk7-27" target="JOxrYH9VMVZD62wawOk7-22" edge="1">
          <mxGeometry relative="1" as="geometry">
            <Array as="points">
              <mxPoint x="320" y="230" />
              <mxPoint x="320" y="240" />
            </Array>
          </mxGeometry>
        </mxCell>
        <mxCell id="JOxrYH9VMVZD62wawOk7-27" value="B" style="ellipse;whiteSpace=wrap;html=1;aspect=fixed;fontSize=26;" parent="1" vertex="1">
          <mxGeometry x="250" y="200" width="40" height="40" as="geometry" />
        </mxCell>
        <mxCell id="JOxrYH9VMVZD62wawOk7-33" style="edgeStyle=orthogonalEdgeStyle;rounded=0;orthogonalLoop=1;jettySize=auto;html=1;entryX=0;entryY=0.75;entryDx=0;entryDy=0;" parent="1" source="JOxrYH9VMVZD62wawOk7-28" target="JOxrYH9VMVZD62wawOk7-10" edge="1">
          <mxGeometry relative="1" as="geometry">
            <Array as="points">
              <mxPoint x="330" y="300" />
              <mxPoint x="330" y="190" />
            </Array>
          </mxGeometry>
        </mxCell>
        <mxCell id="JOxrYH9VMVZD62wawOk7-39" style="edgeStyle=orthogonalEdgeStyle;rounded=0;orthogonalLoop=1;jettySize=auto;html=1;entryX=0;entryY=0.75;entryDx=0;entryDy=0;" parent="1" source="JOxrYH9VMVZD62wawOk7-28" target="JOxrYH9VMVZD62wawOk7-17" edge="1">
          <mxGeometry relative="1" as="geometry">
            <Array as="points">
              <mxPoint x="450" y="310" />
              <mxPoint x="450" y="140" />
            </Array>
          </mxGeometry>
        </mxCell>
        <mxCell id="JOxrYH9VMVZD62wawOk7-43" style="edgeStyle=orthogonalEdgeStyle;rounded=0;orthogonalLoop=1;jettySize=auto;html=1;entryX=0;entryY=0.25;entryDx=0;entryDy=0;" parent="1" source="JOxrYH9VMVZD62wawOk7-28" target="JOxrYH9VMVZD62wawOk7-41" edge="1">
          <mxGeometry relative="1" as="geometry">
            <Array as="points">
              <mxPoint x="325" y="320" />
              <mxPoint x="325" y="330" />
            </Array>
          </mxGeometry>
        </mxCell>
        <mxCell id="JOxrYH9VMVZD62wawOk7-28" value="C" style="ellipse;whiteSpace=wrap;html=1;aspect=fixed;fontSize=26;" parent="1" vertex="1">
          <mxGeometry x="250" y="290" width="40" height="40" as="geometry" />
        </mxCell>
        <mxCell id="JOxrYH9VMVZD62wawOk7-31" value="" style="group" parent="1" vertex="1" connectable="0">
          <mxGeometry x="320" y="110" width="36" height="40" as="geometry" />
        </mxCell>
        <mxCell id="JOxrYH9VMVZD62wawOk7-29" value="1" style="rounded=0;whiteSpace=wrap;html=1;" parent="JOxrYH9VMVZD62wawOk7-31" vertex="1">
          <mxGeometry width="30" height="40" as="geometry" />
        </mxCell>
        <mxCell id="JOxrYH9VMVZD62wawOk7-30" value="" style="ellipse;whiteSpace=wrap;html=1;aspect=fixed;" parent="JOxrYH9VMVZD62wawOk7-31" vertex="1">
          <mxGeometry x="30" y="17" width="6" height="6" as="geometry" />
        </mxCell>
        <mxCell id="JOxrYH9VMVZD62wawOk7-32" value="" style="group" parent="1" vertex="1" connectable="0">
          <mxGeometry x="356" y="220" width="36" height="40" as="geometry" />
        </mxCell>
        <mxCell id="JOxrYH9VMVZD62wawOk7-22" value="1" style="rounded=0;whiteSpace=wrap;html=1;" parent="JOxrYH9VMVZD62wawOk7-32" vertex="1">
          <mxGeometry width="30" height="40" as="geometry" />
        </mxCell>
        <mxCell id="JOxrYH9VMVZD62wawOk7-23" value="" style="ellipse;whiteSpace=wrap;html=1;aspect=fixed;" parent="JOxrYH9VMVZD62wawOk7-32" vertex="1">
          <mxGeometry x="30" y="17" width="6" height="6" as="geometry" />
        </mxCell>
        <mxCell id="JOxrYH9VMVZD62wawOk7-38" style="edgeStyle=orthogonalEdgeStyle;rounded=0;orthogonalLoop=1;jettySize=auto;html=1;entryX=0;entryY=0.5;entryDx=0;entryDy=0;" parent="1" source="JOxrYH9VMVZD62wawOk7-23" target="JOxrYH9VMVZD62wawOk7-17" edge="1">
          <mxGeometry relative="1" as="geometry">
            <Array as="points">
              <mxPoint x="440" y="240" />
              <mxPoint x="440" y="130" />
            </Array>
          </mxGeometry>
        </mxCell>
        <mxCell id="JOxrYH9VMVZD62wawOk7-40" value="" style="group" parent="1" vertex="1" connectable="0">
          <mxGeometry x="360" y="320" width="36" height="40" as="geometry" />
        </mxCell>
        <mxCell id="JOxrYH9VMVZD62wawOk7-41" value="1" style="rounded=0;whiteSpace=wrap;html=1;" parent="JOxrYH9VMVZD62wawOk7-40" vertex="1">
          <mxGeometry width="30" height="40" as="geometry" />
        </mxCell>
        <mxCell id="JOxrYH9VMVZD62wawOk7-42" value="" style="ellipse;whiteSpace=wrap;html=1;aspect=fixed;" parent="JOxrYH9VMVZD62wawOk7-40" vertex="1">
          <mxGeometry x="30" y="17" width="6" height="6" as="geometry" />
        </mxCell>
        <mxCell id="JOxrYH9VMVZD62wawOk7-56" style="edgeStyle=orthogonalEdgeStyle;rounded=0;orthogonalLoop=1;jettySize=auto;html=1;entryX=-0.035;entryY=0.645;entryDx=0;entryDy=0;entryPerimeter=0;" parent="1" source="JOxrYH9VMVZD62wawOk7-45" target="JOxrYH9VMVZD62wawOk7-54" edge="1">
          <mxGeometry relative="1" as="geometry" />
        </mxCell>
        <mxCell id="JOxrYH9VMVZD62wawOk7-45" value="&amp;amp;" style="rounded=0;whiteSpace=wrap;html=1;" parent="1" vertex="1">
          <mxGeometry x="520" y="200" width="30" height="40" as="geometry" />
        </mxCell>
        <mxCell id="JOxrYH9VMVZD62wawOk7-46" style="edgeStyle=orthogonalEdgeStyle;rounded=0;orthogonalLoop=1;jettySize=auto;html=1;entryX=0;entryY=0.75;entryDx=0;entryDy=0;" parent="1" source="JOxrYH9VMVZD62wawOk7-41" target="JOxrYH9VMVZD62wawOk7-45" edge="1">
          <mxGeometry relative="1" as="geometry">
            <Array as="points">
              <mxPoint x="460" y="340" />
              <mxPoint x="460" y="230" />
            </Array>
          </mxGeometry>
        </mxCell>
        <mxCell id="JOxrYH9VMVZD62wawOk7-49" style="edgeStyle=orthogonalEdgeStyle;rounded=0;orthogonalLoop=1;jettySize=auto;html=1;entryX=0;entryY=0.5;entryDx=0;entryDy=0;" parent="1" source="JOxrYH9VMVZD62wawOk7-27" target="JOxrYH9VMVZD62wawOk7-45" edge="1">
          <mxGeometry relative="1" as="geometry">
            <Array as="points">
              <mxPoint x="404" y="210" />
              <mxPoint x="404" y="220" />
            </Array>
          </mxGeometry>
        </mxCell>
        <mxCell id="JOxrYH9VMVZD62wawOk7-50" value="&amp;amp;" style="rounded=0;whiteSpace=wrap;html=1;" parent="1" vertex="1">
          <mxGeometry x="510" y="270" width="30" height="40" as="geometry" />
        </mxCell>
        <mxCell id="JOxrYH9VMVZD62wawOk7-52" style="edgeStyle=orthogonalEdgeStyle;rounded=0;orthogonalLoop=1;jettySize=auto;html=1;entryX=0;entryY=0.5;entryDx=0;entryDy=0;" parent="1" source="JOxrYH9VMVZD62wawOk7-27" target="JOxrYH9VMVZD62wawOk7-50" edge="1">
          <mxGeometry relative="1" as="geometry">
            <Array as="points">
              <mxPoint x="270" y="270" />
              <mxPoint x="400" y="270" />
              <mxPoint x="400" y="290" />
            </Array>
          </mxGeometry>
        </mxCell>
        <mxCell id="JOxrYH9VMVZD62wawOk7-53" style="edgeStyle=orthogonalEdgeStyle;rounded=0;orthogonalLoop=1;jettySize=auto;html=1;entryX=0;entryY=0.75;entryDx=0;entryDy=0;" parent="1" source="JOxrYH9VMVZD62wawOk7-28" target="JOxrYH9VMVZD62wawOk7-50" edge="1">
          <mxGeometry relative="1" as="geometry">
            <mxPoint x="480" y="300" as="targetPoint" />
            <Array as="points">
              <mxPoint x="270" y="370" />
              <mxPoint x="490" y="370" />
              <mxPoint x="490" y="300" />
            </Array>
          </mxGeometry>
        </mxCell>
        <mxCell id="JOxrYH9VMVZD62wawOk7-60" style="edgeStyle=orthogonalEdgeStyle;rounded=0;orthogonalLoop=1;jettySize=auto;html=1;entryX=0;entryY=0.5;entryDx=0;entryDy=0;" parent="1" source="JOxrYH9VMVZD62wawOk7-54" target="JOxrYH9VMVZD62wawOk7-59" edge="1">
          <mxGeometry relative="1" as="geometry" />
        </mxCell>
        <mxCell id="JOxrYH9VMVZD62wawOk7-54" value="&lt;font face=&quot;Helvetica&quot;&gt;&lt;font&gt;&lt;span style=&quot;color: black; font-weight: normal;&quot;&gt;≥1&lt;/span&gt;&lt;/font&gt;&lt;/font&gt;" style="rounded=0;whiteSpace=wrap;html=1;" parent="1" vertex="1">
          <mxGeometry x="590" y="140" width="30" height="40" as="geometry" />
        </mxCell>
        <mxCell id="JOxrYH9VMVZD62wawOk7-58" style="edgeStyle=orthogonalEdgeStyle;rounded=0;orthogonalLoop=1;jettySize=auto;html=1;entryX=-0.013;entryY=0.897;entryDx=0;entryDy=0;entryPerimeter=0;" parent="1" source="JOxrYH9VMVZD62wawOk7-50" target="JOxrYH9VMVZD62wawOk7-54" edge="1">
          <mxGeometry relative="1" as="geometry" />
        </mxCell>
        <mxCell id="JOxrYH9VMVZD62wawOk7-59" value="y" style="ellipse;whiteSpace=wrap;html=1;aspect=fixed;fontSize=26;" parent="1" vertex="1">
          <mxGeometry x="670" y="140" width="40" height="40" as="geometry" />
        </mxCell>
        <mxCell id="isvEnNSeEXq-apGftSA8-15" style="edgeStyle=orthogonalEdgeStyle;rounded=0;orthogonalLoop=1;jettySize=auto;html=1;entryX=0;entryY=0.25;entryDx=0;entryDy=0;exitX=1;exitY=0;exitDx=0;exitDy=0;" edge="1" parent="1" source="isvEnNSeEXq-apGftSA8-1" target="isvEnNSeEXq-apGftSA8-13">
          <mxGeometry relative="1" as="geometry" />
        </mxCell>
        <mxCell id="isvEnNSeEXq-apGftSA8-20" style="rounded=0;orthogonalLoop=1;jettySize=auto;html=1;entryX=0;entryY=0.25;entryDx=0;entryDy=0;" edge="1" parent="1" source="isvEnNSeEXq-apGftSA8-1" target="isvEnNSeEXq-apGftSA8-5">
          <mxGeometry relative="1" as="geometry" />
        </mxCell>
        <mxCell id="isvEnNSeEXq-apGftSA8-1" value="A" style="ellipse;whiteSpace=wrap;html=1;aspect=fixed;fontSize=26;" vertex="1" parent="1">
          <mxGeometry x="240" y="474" width="40" height="40" as="geometry" />
        </mxCell>
        <mxCell id="isvEnNSeEXq-apGftSA8-14" style="rounded=0;orthogonalLoop=1;jettySize=auto;html=1;entryX=0;entryY=0.75;entryDx=0;entryDy=0;" edge="1" parent="1" source="isvEnNSeEXq-apGftSA8-2" target="isvEnNSeEXq-apGftSA8-9">
          <mxGeometry relative="1" as="geometry" />
        </mxCell>
        <mxCell id="isvEnNSeEXq-apGftSA8-23" style="edgeStyle=orthogonalEdgeStyle;rounded=0;orthogonalLoop=1;jettySize=auto;html=1;entryX=0;entryY=0.75;entryDx=0;entryDy=0;" edge="1" parent="1" source="isvEnNSeEXq-apGftSA8-2" target="isvEnNSeEXq-apGftSA8-22">
          <mxGeometry relative="1" as="geometry">
            <Array as="points">
              <mxPoint x="300" y="610" />
              <mxPoint x="300" y="610" />
            </Array>
          </mxGeometry>
        </mxCell>
        <mxCell id="isvEnNSeEXq-apGftSA8-2" value="B" style="ellipse;whiteSpace=wrap;html=1;aspect=fixed;fontSize=26;" vertex="1" parent="1">
          <mxGeometry x="240" y="580" width="40" height="40" as="geometry" />
        </mxCell>
        <mxCell id="isvEnNSeEXq-apGftSA8-3" value="Y" style="ellipse;whiteSpace=wrap;html=1;aspect=fixed;fontSize=26;" vertex="1" parent="1">
          <mxGeometry x="500" y="524" width="40" height="40" as="geometry" />
        </mxCell>
        <mxCell id="isvEnNSeEXq-apGftSA8-4" value="" style="group" vertex="1" connectable="0" parent="1">
          <mxGeometry x="316" y="553" width="36" height="40" as="geometry" />
        </mxCell>
        <mxCell id="isvEnNSeEXq-apGftSA8-5" value="1" style="rounded=0;whiteSpace=wrap;html=1;" vertex="1" parent="isvEnNSeEXq-apGftSA8-4">
          <mxGeometry width="30" height="40" as="geometry" />
        </mxCell>
        <mxCell id="isvEnNSeEXq-apGftSA8-6" value="" style="ellipse;whiteSpace=wrap;html=1;aspect=fixed;" vertex="1" parent="isvEnNSeEXq-apGftSA8-4">
          <mxGeometry x="30" y="17" width="6" height="6" as="geometry" />
        </mxCell>
        <mxCell id="isvEnNSeEXq-apGftSA8-8" value="" style="group" vertex="1" connectable="0" parent="1">
          <mxGeometry x="316" y="500" width="36" height="40" as="geometry" />
        </mxCell>
        <mxCell id="isvEnNSeEXq-apGftSA8-9" value="1" style="rounded=0;whiteSpace=wrap;html=1;" vertex="1" parent="isvEnNSeEXq-apGftSA8-8">
          <mxGeometry width="30" height="40" as="geometry" />
        </mxCell>
        <mxCell id="isvEnNSeEXq-apGftSA8-10" value="" style="ellipse;whiteSpace=wrap;html=1;aspect=fixed;" vertex="1" parent="isvEnNSeEXq-apGftSA8-8">
          <mxGeometry x="30" y="17" width="6" height="6" as="geometry" />
        </mxCell>
        <mxCell id="isvEnNSeEXq-apGftSA8-25" style="edgeStyle=orthogonalEdgeStyle;rounded=0;orthogonalLoop=1;jettySize=auto;html=1;entryX=0;entryY=0.25;entryDx=0;entryDy=0;" edge="1" parent="1" source="isvEnNSeEXq-apGftSA8-13" target="isvEnNSeEXq-apGftSA8-18">
          <mxGeometry relative="1" as="geometry">
            <Array as="points">
              <mxPoint x="420" y="490" />
              <mxPoint x="420" y="534" />
            </Array>
          </mxGeometry>
        </mxCell>
        <mxCell id="isvEnNSeEXq-apGftSA8-13" value="&amp;amp;" style="rounded=0;whiteSpace=wrap;html=1;" vertex="1" parent="1">
          <mxGeometry x="375" y="470" width="30" height="40" as="geometry" />
        </mxCell>
        <mxCell id="isvEnNSeEXq-apGftSA8-17" style="edgeStyle=orthogonalEdgeStyle;rounded=0;orthogonalLoop=1;jettySize=auto;html=1;exitX=1;exitY=0.5;exitDx=0;exitDy=0;entryX=0;entryY=0.75;entryDx=0;entryDy=0;" edge="1" parent="1" source="isvEnNSeEXq-apGftSA8-10" target="isvEnNSeEXq-apGftSA8-13">
          <mxGeometry relative="1" as="geometry">
            <mxPoint x="350" y="520" as="sourcePoint" />
            <mxPoint x="360" y="500" as="targetPoint" />
            <Array as="points">
              <mxPoint x="360" y="520" />
              <mxPoint x="360" y="500" />
            </Array>
          </mxGeometry>
        </mxCell>
        <mxCell id="isvEnNSeEXq-apGftSA8-27" value="" style="edgeStyle=orthogonalEdgeStyle;rounded=0;orthogonalLoop=1;jettySize=auto;html=1;" edge="1" parent="1" source="isvEnNSeEXq-apGftSA8-18" target="isvEnNSeEXq-apGftSA8-3">
          <mxGeometry relative="1" as="geometry" />
        </mxCell>
        <mxCell id="isvEnNSeEXq-apGftSA8-18" value="&lt;font face=&quot;Helvetica&quot;&gt;&lt;font&gt;&lt;span style=&quot;color: black; font-weight: normal;&quot;&gt;≥1&lt;/span&gt;&lt;/font&gt;&lt;/font&gt;" style="rounded=0;whiteSpace=wrap;html=1;" vertex="1" parent="1">
          <mxGeometry x="440" y="524" width="30" height="40" as="geometry" />
        </mxCell>
        <mxCell id="isvEnNSeEXq-apGftSA8-26" style="edgeStyle=orthogonalEdgeStyle;rounded=0;orthogonalLoop=1;jettySize=auto;html=1;entryX=0;entryY=0.75;entryDx=0;entryDy=0;" edge="1" parent="1" source="isvEnNSeEXq-apGftSA8-22" target="isvEnNSeEXq-apGftSA8-18">
          <mxGeometry relative="1" as="geometry">
            <Array as="points">
              <mxPoint x="420" y="600" />
              <mxPoint x="420" y="554" />
            </Array>
          </mxGeometry>
        </mxCell>
        <mxCell id="isvEnNSeEXq-apGftSA8-22" value="&amp;amp;" style="rounded=0;whiteSpace=wrap;html=1;" vertex="1" parent="1">
          <mxGeometry x="375" y="580" width="30" height="40" as="geometry" />
        </mxCell>
        <mxCell id="isvEnNSeEXq-apGftSA8-24" style="edgeStyle=orthogonalEdgeStyle;rounded=0;orthogonalLoop=1;jettySize=auto;html=1;entryX=0;entryY=0.25;entryDx=0;entryDy=0;exitX=1;exitY=0.5;exitDx=0;exitDy=0;" edge="1" parent="1" source="isvEnNSeEXq-apGftSA8-6" target="isvEnNSeEXq-apGftSA8-22">
          <mxGeometry relative="1" as="geometry">
            <Array as="points">
              <mxPoint x="360" y="573" />
              <mxPoint x="360" y="590" />
            </Array>
          </mxGeometry>
        </mxCell>
      </root>
    </mxGraphModel>
  </diagram>
</mxfile>
